<?xml version="1.0" encoding="UTF-8" standalone="no"?>
<svg width="140px" height="140px" viewBox="0 0 140 140" version="1.1" xmlns="http://www.w3.org/2000/svg" xmlns:xlink="http://www.w3.org/1999/xlink">
    <!-- Generator: Sketch 3.8.2 (29753) - http://www.bohemiancoding.com/sketch -->
    <title>logo-studio-stomp--circle</title>
    <desc>Created with Sketch.</desc>
    <defs></defs>
    <g id="Page-1" stroke="none" stroke-width="1" fill="none" fill-rule="evenodd">
        <g id="Desktop-HD-Copy-8" transform="translate(-37.000000, -84.000000)">
            <g id="logo-studio-stomp" transform="translate(37.000000, 84.000000)">
                <g id="logo-studio-stomp--circle">
                    <path d="M17.0384243,24.2314072 C-8.24044796,53.4850029 -5.01951164,97.686395 24.2307532,122.963114 C53.4821136,148.239834 97.6856301,145.019988 122.963407,115.767488 C148.240088,86.5171789 145.019152,42.3125001 115.768887,17.0357808 C86.5175265,-8.2409385 42.31401,-5.01780621 17.0384243,24.2314072 Z M41.0968466,103.44684 C22.6246673,87.4834612 20.5913143,59.5719244 36.5546691,41.0975261 C52.5158328,22.6286055 80.4306142,20.5908673 98.9016979,36.5531506 C117.374973,52.5165294 119.406135,80.4324485 103.447162,98.9024646 C87.4827118,117.375767 59.5701215,119.409123 41.0968466,103.44684" id="circle" fill="#0044FF"></path>
                    <path d="M70.0016635,50 C58.9550584,50 50,58.9537011 50,69.9977821 C50,81.042972 58.9550584,90 70.0016635,90 C81.0482686,90 90,81.042972 90,69.9977821 C90,58.9537011 81.0482686,50 70.0016635,50 Z" id="dot" fill="#151515"></path>
                </g>
            </g>
        </g>
    </g>
</svg>